<?xml version="1.0" encoding="UTF-8" standalone="no"?>
<!DOCTYPE svg PUBLIC "-//W3C//DTD SVG 1.1//EN" "http://www.w3.org/Graphics/SVG/1.1/DTD/svg11.dtd">
<svg width="100%" height="100%" viewBox="0 0 89 24" version="1.1" xmlns="http://www.w3.org/2000/svg" xmlns:xlink="http://www.w3.org/1999/xlink" xml:space="preserve" xmlns:serif="http://www.serif.com/" style="fill-rule:evenodd;clip-rule:evenodd;stroke-linejoin:round;stroke-miterlimit:2;">
    <g>
        <rect x="85.437" y="6" width="2.718" height="12.6" style="fill:rgb(10,10,11);fill-rule:nonzero;"/>
        <path d="M70.466,18.6L75.218,6L78.026,6L82.76,18.6L79.862,18.6L78.89,15.648L74.3,15.648L73.346,18.6L70.466,18.6ZM75.038,13.398L78.152,13.398L77.342,10.932C77.126,10.266 76.784,9.366 76.586,8.466L76.568,8.466C76.316,9.492 76.082,10.14 75.83,10.932L75.038,13.398Z" style="fill:rgb(10,10,11);fill-rule:nonzero;"/>
        <rect x="63.157" y="12.336" width="5.76" height="2.25" style="fill:rgb(10,10,11);fill-rule:nonzero;"/>
        <path d="M50.97,18.6L50.97,6L55.614,6C57.99,6 60.906,6.36 60.906,9.978C60.906,13.596 58.044,14.01 55.614,14.01L53.688,14.01L53.688,18.6L50.97,18.6ZM55.542,11.886C56.964,11.886 58.17,11.796 58.17,9.978C58.17,8.16 56.964,8.124 55.56,8.124L53.688,8.124L53.688,11.886L55.542,11.886Z" style="fill:rgb(10,10,11);fill-rule:nonzero;"/>
        <path d="M36,18.6L40.752,6L43.56,6L48.294,18.6L45.396,18.6L44.424,15.648L39.834,15.648L38.88,18.6L36,18.6ZM40.572,13.398L43.686,13.398L42.876,10.932C42.66,10.266 42.318,9.366 42.12,8.466L42.102,8.466C41.85,9.492 41.616,10.14 41.364,10.932L40.572,13.398Z" style="fill:rgb(10,10,11);fill-rule:nonzero;"/>
        <path d="M12,2.736L12.477,2.749C17.368,2.997 21.263,7.047 21.263,11.999L12,11.999L12,2.736Z" style="fill:rgb(252,183,22);fill-rule:nonzero;"/>
        <path d="M12,11.999L12,21.264C6.887,21.264 2.737,17.113 2.737,11.999L12,11.999Z" style="fill:rgb(252,183,22);fill-rule:nonzero;"/>
        <path d="M0,11.999C0,5.378 5.377,0 12,0C18.623,0 24,5.378 24,11.999C24,18.622 18.623,24 12,24C5.377,24 0,18.622 0,11.999ZM2.737,11.999C2.737,17.113 6.887,21.264 12,21.264L12,11.999L21.263,11.999C21.263,7.047 17.368,2.997 12.477,2.749L12,2.736L12,11.999L2.737,11.999Z" style="fill:rgb(10,10,11);"/>
    </g>
</svg>
