<svg width="89" height="24" viewBox="0 0 89 24" fill="none" xmlns="http://www.w3.org/2000/svg">
<g clip-path="url(#clip0_229_652)">
<path d="M85.437 18.6V6H88.155V18.6H85.437Z" fill="#0A0A0B"/>
<path d="M70.4663 18.6L75.2183 6H78.0263L82.7603 18.6H79.8623L78.8903 15.648H74.3003L73.3463 18.6H70.4663ZM75.0383 13.398H78.1523L77.3423 10.932C77.1263 10.266 76.7843 9.366 76.5863 8.466H76.5683C76.3163 9.492 76.0823 10.14 75.8303 10.932L75.0383 13.398Z" fill="#0A0A0B"/>
<path d="M63.1567 14.5861V12.3361H68.9167V14.5861H63.1567Z" fill="#0A0A0B"/>
<path d="M50.9702 18.6V6H55.6142C57.9902 6 60.9062 6.36 60.9062 9.978C60.9062 13.596 58.0442 14.01 55.6142 14.01H53.6882V18.6H50.9702ZM55.5422 11.886C56.9642 11.886 58.1702 11.796 58.1702 9.978C58.1702 8.16 56.9642 8.124 55.5602 8.124H53.6882V11.886H55.5422Z" fill="#0A0A0B"/>
<path d="M36 18.6L40.752 6H43.56L48.294 18.6H45.396L44.424 15.648H39.834L38.88 18.6H36ZM40.572 13.398H43.686L42.876 10.932C42.66 10.266 42.318 9.366 42.12 8.466H42.102C41.85 9.492 41.616 10.14 41.364 10.932L40.572 13.398Z" fill="#0A0A0B"/>
<path d="M12 2.73633L12.4766 2.74902C17.3679 2.99742 21.2625 7.04674 21.2627 11.999H12V2.73633Z" fill="white"/>
<path d="M12 11.999V21.2637C6.88746 21.2637 2.7373 17.1127 2.7373 11.999H12Z" fill="white"/>
<path fill-rule="evenodd" clip-rule="evenodd" d="M0 11.999C0.000153144 5.37757 5.3768 0 12 0C18.6232 3.38405e-05 23.9998 5.37759 24 11.999C24 18.622 18.6233 24 12 24C5.3767 24 0 18.622 0 11.999ZM2.73731 11.999C2.73731 17.1127 6.88747 21.2637 12 21.2637V11.999H21.2627C21.2625 7.04674 17.3679 2.99742 12.4766 2.74902L12 2.73633V11.999H2.73731Z" fill="#0A0A0B"/>
</g>
<defs>
<clipPath id="clip0_229_652">
<rect width="89" height="24" fill="white"/>
</clipPath>
</defs>
</svg>
