<svg width="89" height="24" viewBox="0 0 89 24" fill="none" xmlns="http://www.w3.org/2000/svg">
<path d="M85.4369 18.6V6H88.1549V18.6H85.4369Z" fill="currentColor"/>
<path d="M70.4665 18.6L75.2185 6H78.0265L82.7605 18.6H79.8625L78.8905 15.648H74.3005L73.3465 18.6H70.4665ZM75.0385 13.398H78.1525L77.3425 10.932C77.1265 10.266 76.7845 9.366 76.5865 8.466H76.5685C76.3165 9.492 76.0825 10.14 75.8305 10.932L75.0385 13.398Z" fill="currentColor"/>
<path d="M63.1568 14.586V12.336H68.9168V14.586H63.1568Z" fill="currentColor"/>
<path d="M50.9704 18.6V6H55.6144C57.9904 6 60.9064 6.36 60.9064 9.978C60.9064 13.596 58.0444 14.01 55.6144 14.01H53.6884V18.6H50.9704ZM55.5424 11.886C56.9644 11.886 58.1704 11.796 58.1704 9.978C58.1704 8.16 56.9644 8.124 55.5604 8.124H53.6884V11.886H55.5424Z" fill="currentColor"/>
<path d="M36 18.6L40.752 6H43.56L48.294 18.6H45.396L44.424 15.648H39.834L38.88 18.6H36ZM40.572 13.398H43.686L42.876 10.932C42.66 10.266 42.318 9.366 42.12 8.466H42.102C41.85 9.492 41.616 10.14 41.364 10.932L40.572 13.398Z" fill="currentColor"/>
<path d="M12 2.73633L12.4766 2.74902C17.3679 2.99742 21.2625 7.04674 21.2627 11.999H12V2.73633Z" class="logo-dark"/>
<path d="M12 11.999V21.2637C6.88747 21.2637 2.73731 17.1127 2.73731 11.999H12Z" class="logo-dark"/>
<path fill-rule="evenodd" clip-rule="evenodd" d="M1.04907e-06 11.999C0.000154193 5.37757 5.3768 7.56163e-08 12 7.56163e-08C18.6232 3.39161e-05 23.9998 5.37759 24 11.999C24 18.622 18.6233 24 12 24C5.3767 24 1.04907e-06 18.622 1.04907e-06 11.999ZM2.73731 11.999C2.73731 17.1127 6.88747 21.2637 12 21.2637V11.999H21.2627C21.2625 7.04674 17.3679 2.99742 12.4766 2.74902L12 2.73633V11.999H2.73731Z" class="logo-gold"/>
</svg>
