<svg width="99" height="24" viewBox="0 0 99 24" fill="none" xmlns="http://www.w3.org/2000/svg">
<path d="M39.964 18L44.716 5.4H47.524L52.258 18H49.36L48.388 15.048H43.798L42.844 18H39.964ZM44.536 12.798H47.65L46.84 10.332C46.624 9.666 46.282 8.766 46.084 7.866H46.066C45.814 8.892 45.58 9.54 45.328 10.332L44.536 12.798ZM54.9344 18V5.4H59.5784C61.9544 5.4 64.8704 5.76 64.8704 9.378C64.8704 12.996 62.0084 13.41 59.5784 13.41H57.6524V18H54.9344ZM59.5064 11.286C60.9284 11.286 62.1344 11.196 62.1344 9.378C62.1344 7.56 60.9284 7.524 59.5244 7.524H57.6524V11.286H59.5064ZM67.1208 13.986V11.736H72.8808V13.986H67.1208ZM74.4305 18L79.1825 5.4H81.9905L86.7245 18H83.8265L82.8545 15.048H78.2645L77.3105 18H74.4305ZM79.0025 12.798H82.1165L81.3065 10.332C81.0905 9.666 80.7485 8.766 80.5505 7.866H80.5325C80.2805 8.892 80.0465 9.54 79.7945 10.332L79.0025 12.798ZM89.4009 18V5.4H92.1189V18H89.4009Z" fill="#F1F0EF"/>
<g clip-path="url(#clip0_140_1122)">
<path fill-rule="evenodd" clip-rule="evenodd" d="M23.9999 11.9993L12 11.9993L12 0C18.6233 0 23.9999 5.37773 23.9999 11.9993Z" fill="#0A0A0B"/>
<path fill-rule="evenodd" clip-rule="evenodd" d="M0 11.9993H11.9999V24C5.37664 24 0 18.6223 0 11.9993Z" fill="#0A0A0B"/>
<path fill-rule="evenodd" clip-rule="evenodd" d="M11.9999 0V11.9993H0C0 5.37773 5.37664 0 11.9999 0Z" fill="#FCB716"/>
<path fill-rule="evenodd" clip-rule="evenodd" d="M12 24L12 11.9993L23.9999 11.9993C23.9999 18.6223 18.6233 24 12 24Z" fill="#FCB716"/>
<path fill-rule="evenodd" clip-rule="evenodd" d="M11.9999 0C18.6232 0 23.9999 5.37773 23.9999 11.9993C23.9999 18.6223 18.6232 24 11.9999 24C5.37664 24 0 18.6223 0 11.9993C0 5.37773 5.37664 0 11.9999 0ZM11.9999 2.73676C17.1125 2.73676 21.263 6.88705 21.263 11.9993C21.263 17.1129 17.1125 21.2632 11.9999 21.2632C6.88741 21.2632 2.7369 17.1129 2.7369 11.9993C2.7369 6.88705 6.88741 2.73676 11.9999 2.73676Z" fill="#FCB716"/>
</g>
<defs>
<clipPath id="clip0_140_1122">
<rect width="24" height="24" fill="white"/>
</clipPath>
</defs>
</svg>
